<?xml version="1.0" encoding="UTF-8" standalone="no"?>
<!-- Generator: Adobe Illustrator 19.0.0, SVG Export Plug-In . SVG Version: 6.00 Build 0)  -->

<svg
   version="1.1"
   id="Capa_1"
   x="0px"
   y="0px"
   viewBox="0 0 504 302.39999"
   xml:space="preserve"
   sodipodi:docname="mastercard-color-cropp.svg"
   width="504"
   height="302.39999"
   inkscape:version="1.2.1 (9c6d41e410, 2022-07-14)"
   xmlns:inkscape="http://www.inkscape.org/namespaces/inkscape"
   xmlns:sodipodi="http://sodipodi.sourceforge.net/DTD/sodipodi-0.dtd"
   xmlns="http://www.w3.org/2000/svg"
   xmlns:svg="http://www.w3.org/2000/svg"><defs
   id="defs10209" /><sodipodi:namedview
   id="namedview10207"
   pagecolor="#ffffff"
   bordercolor="#000000"
   borderopacity="0.25"
   inkscape:showpageshadow="2"
   inkscape:pageopacity="0.0"
   inkscape:pagecheckerboard="0"
   inkscape:deskcolor="#d1d1d1"
   showgrid="false"
   inkscape:zoom="1.6150794"
   inkscape:cx="252.30958"
   inkscape:cy="155.10074"
   inkscape:window-width="1920"
   inkscape:window-height="1001"
   inkscape:window-x="-9"
   inkscape:window-y="-9"
   inkscape:window-maximized="1"
   inkscape:current-layer="Capa_1" />
<path
   style="fill:#ffb600"
   d="m 504,151.2 c 0,83.2 -67.2,151.2 -151.2,151.2 -83.2,0 -151.2,-68 -151.2,-151.2 v 0 C 201.6,68 268.8,0 352,0 436.8,0 504,68 504,151.2 Z"
   id="path10120" />
<path
   style="fill:#f7981d"
   d="M 352.8,0 C 436,0 504,68 504,151.2 v 0 c 0,83.2 -67.2,151.2 -151.2,151.2 -83.2,0 -151.2,-68 -151.2,-151.2"
   id="path10122" />
<path
   style="fill:#ff8500"
   d="M 352.8,0 C 436,0 504,68 504,151.2 v 0 c 0,83.2 -67.2,151.2 -151.2,151.2"
   id="path10124" />
<path
   style="fill:#ff5050"
   d="M 149.6,0 C 67.2,0.8 0,68 0,151.2 c 0,83.2 67.2,151.2 151.2,151.2 39.2,0 74.4,-15.2 101.6,-39.2 v 0 0 c 5.6,-4.8 10.4,-10.4 15.2,-16 h -31.2 c -4,-4.8 -8,-10.4 -11.2,-15.2 h 53.6 c 3.2,-4.8 6.4,-10.4 8.8,-16 h -71.2 c -2.4,-4.8 -4.8,-10.4 -6.4,-16 h 83.2 c 4.8,-15.2 8,-31.2 8,-48 0,-11.2 -1.6,-21.6 -3.2,-32 h -92.8 c 0.8,-5.6 2.4,-10.4 4,-16 h 83.2 c -1.6,-5.6 -4,-11.2 -6.4,-16 H 216 c 2.4,-5.6 5.6,-10.4 8.8,-16 h 53.6 c -3.2,-5.6 -7.2,-11.2 -12,-16 H 236.8 C 241.6,50.4 246.4,45.6 252,40.8 225.6,16 189.6,1.6 150.4,1.6 150.4,0 150.4,0 149.6,0 Z"
   id="path10126" />
<path
   style="fill:#e52836"
   d="m 0,151.2 c 0,83.2 67.2,151.2 151.2,151.2 39.2,0 74.4,-15.2 101.6,-39.2 v 0 0 c 5.6,-4.8 10.4,-10.4 15.2,-16 h -31.2 c -4,-4.8 -8,-10.4 -11.2,-15.2 h 53.6 c 3.2,-4.8 6.4,-10.4 8.8,-16 h -71.2 c -2.4,-4.8 -4.8,-10.4 -6.4,-16 h 83.2 c 4.8,-15.2 8,-31.2 8,-48 0,-11.2 -1.6,-21.6 -3.2,-32 h -92.8 c 0.8,-5.6 2.4,-10.4 4,-16 h 83.2 c -1.6,-5.6 -4,-11.2 -6.4,-16 H 216 c 2.4,-5.6 5.6,-10.4 8.8,-16 h 53.6 c -3.2,-5.6 -7.2,-11.2 -12,-16 H 236.8 C 241.6,50.4 246.4,45.6 252,40.8 225.6,16 189.6,1.6 150.4,1.6 h -0.8"
   id="path10128" />
<path
   style="fill:#cb2026"
   d="m 151.2,302.4 c 39.2,0 74.4,-15.2 101.6,-39.2 v 0 0 c 5.6,-4.8 10.4,-10.4 15.2,-16 h -31.2 c -4,-4.8 -8,-10.4 -11.2,-15.2 h 53.6 c 3.2,-4.8 6.4,-10.4 8.8,-16 h -71.2 c -2.4,-4.8 -4.8,-10.4 -6.4,-16 h 83.2 c 4.8,-15.2 8,-31.2 8,-48 0,-11.2 -1.6,-21.6 -3.2,-32 h -92.8 c 0.8,-5.6 2.4,-10.4 4,-16 h 83.2 c -1.6,-5.6 -4,-11.2 -6.4,-16 H 216 c 2.4,-5.6 5.6,-10.4 8.8,-16 h 53.6 c -3.2,-5.6 -7.2,-11.2 -12,-16 H 236.8 C 241.6,50.4 246.4,45.6 252,40.8 225.6,16 189.6,1.6 150.4,1.6 h -0.8"
   id="path10130" />
<g
   id="g10152"
   transform="translate(0,-100.8)">
	<path
   style="fill:#ffffff"
   d="m 204.8,290.4 2.4,-13.6 c -0.8,0 -2.4,0.8 -4,0.8 -5.6,0 -6.4,-3.2 -5.6,-4.8 l 4.8,-28 h 8.8 l 2.4,-15.2 h -8 l 1.6,-9.6 h -16 c 0,0 -9.6,52.8 -9.6,59.2 0,9.6 5.6,13.6 12.8,13.6 4.8,0 8.8,-1.6 10.4,-2.4 z"
   id="path10132" />
	<path
   style="fill:#ffffff"
   d="m 210.4,264.8 c 0,22.4 15.2,28 28,28 12,0 16.8,-2.4 16.8,-2.4 l 3.2,-15.2 c 0,0 -8.8,4 -16.8,4 -17.6,0 -14.4,-12.8 -14.4,-12.8 H 260 c 0,0 2.4,-10.4 2.4,-14.4 0,-10.4 -5.6,-23.2 -23.2,-23.2 -16.8,-1.6 -28.8,16 -28.8,36 z m 28,-23.2 c 8.8,0 7.2,10.4 7.2,11.2 H 228 c 0,-0.8 1.6,-11.2 10.4,-11.2 z"
   id="path10134" />
	<path
   style="fill:#ffffff"
   d="m 340,290.4 3.2,-17.6 c 0,0 -8,4 -13.6,4 -11.2,0 -16,-8.8 -16,-18.4 0,-19.2 9.6,-29.6 20.8,-29.6 8,0 14.4,4.8 14.4,4.8 l 2.4,-16.8 c 0,0 -9.6,-4 -18.4,-4 -18.4,0 -36.8,16 -36.8,46.4 0,20 9.6,33.6 28.8,33.6 6.4,0 15.2,-2.4 15.2,-2.4 z"
   id="path10136" />
	<path
   style="fill:#ffffff"
   d="m 116.8,227.2 c -11.2,0 -19.2,3.2 -19.2,3.2 L 95.2,244 c 0,0 7.2,-3.2 17.6,-3.2 5.6,0 10.4,0.8 10.4,5.6 0,3.2 -0.8,4 -0.8,4 0,0 -4.8,0 -7.2,0 -13.6,0 -28.8,5.6 -28.8,24 0,14.4 9.6,17.6 15.2,17.6 11.2,0 16,-7.2 16.8,-7.2 l -0.8,6.4 H 132 l 6.4,-44 c 0,-19.2 -16,-20 -21.6,-20 z m 3.2,36 c 0,2.4 -1.6,15.2 -11.2,15.2 -4.8,0 -6.4,-4 -6.4,-6.4 0,-4 2.4,-9.6 14.4,-9.6 2.4,0.8 3.2,0.8 3.2,0.8 z"
   id="path10138" />
	<path
   style="fill:#ffffff"
   d="m 153.6,292 c 4,0 24,0.8 24,-20.8 0,-20 -19.2,-16 -19.2,-24 0,-4 3.2,-5.6 8.8,-5.6 2.4,0 11.2,0.8 11.2,0.8 l 2.4,-14.4 c 0,0 -5.6,-1.6 -15.2,-1.6 -12,0 -24,4.8 -24,20.8 0,18.4 20,16.8 20,24 0,4.8 -5.6,5.6 -9.6,5.6 -7.2,0 -14.4,-2.4 -14.4,-2.4 l -2.4,14.4 c 0.8,1.6 4.8,3.2 18.4,3.2 z"
   id="path10140" />
	<path
   style="fill:#ffffff"
   d="m 472.8,214.4 -3.2,21.6 c 0,0 -6.4,-8 -15.2,-8 -14.4,0 -27.2,17.6 -27.2,38.4 0,12.8 6.4,26.4 20,26.4 9.6,0 15.2,-6.4 15.2,-6.4 l -0.8,5.6 h 16 l 12,-76.8 z m -7.2,42.4 c 0,8.8 -4,20 -12.8,20 -5.6,0 -8.8,-4.8 -8.8,-12.8 0,-12.8 5.6,-20.8 12.8,-20.8 5.6,0 8.8,4 8.8,13.6 z"
   id="path10142" />
	<path
   style="fill:#ffffff"
   d="m 29.6,291.2 9.6,-57.6 1.6,57.6 H 52 L 72.8,233.6 64,291.2 H 80.8 L 93.6,214.4 H 67.2 l -16,47.2 -0.8,-47.2 H 27.2 l -12.8,76.8 z"
   id="path10144" />
	<path
   style="fill:#ffffff"
   d="m 277.6,291.2 c 4.8,-26.4 5.6,-48 16.8,-44 1.6,-10.4 4,-14.4 5.6,-18.4 0,0 -0.8,0 -3.2,0 -7.2,0 -12.8,9.6 -12.8,9.6 l 1.6,-8.8 H 270.4 L 260,292 h 17.6 z"
   id="path10146" />
	<path
   style="fill:#ffffff"
   d="m 376.8,227.2 c -11.2,0 -19.2,3.2 -19.2,3.2 l -2.4,13.6 c 0,0 7.2,-3.2 17.6,-3.2 5.6,0 10.4,0.8 10.4,5.6 0,3.2 -0.8,4 -0.8,4 0,0 -4.8,0 -7.2,0 -13.6,0 -28.8,5.6 -28.8,24 0,14.4 9.6,17.6 15.2,17.6 11.2,0 16,-7.2 16.8,-7.2 l -0.8,6.4 H 392 l 6.4,-44 c 0.8,-19.2 -16,-20 -21.6,-20 z m 4,36 c 0,2.4 -1.6,15.2 -11.2,15.2 -4.8,0 -6.4,-4 -6.4,-6.4 0,-4 2.4,-9.6 14.4,-9.6 2.4,0.8 2.4,0.8 3.2,0.8 z"
   id="path10148" />
	<path
   style="fill:#ffffff"
   d="m 412,291.2 c 4.8,-26.4 5.6,-48 16.8,-44 1.6,-10.4 4,-14.4 5.6,-18.4 0,0 -0.8,0 -3.2,0 -7.2,0 -12.8,9.6 -12.8,9.6 l 1.6,-8.8 H 404.8 L 394.4,292 H 412 Z"
   id="path10150" />
</g>
<g
   id="g10174"
   transform="translate(0,-100.8)">
	<path
   style="fill:#dce5e5"
   d="m 180,279.2 c 0,9.6 5.6,13.6 12.8,13.6 5.6,0 10.4,-1.6 12,-2.4 l 2.4,-13.6 c -0.8,0 -2.4,0.8 -4,0.8 -5.6,0 -6.4,-3.2 -5.6,-4.8 l 4.8,-28 h 8.8 l 2.4,-15.2 h -8 l 1.6,-9.6"
   id="path10154" />
	<path
   style="fill:#dce5e5"
   d="m 218.4,264.8 c 0,22.4 7.2,28 20,28 12,0 16.8,-2.4 16.8,-2.4 l 3.2,-15.2 c 0,0 -8.8,4 -16.8,4 -17.6,0 -14.4,-12.8 -14.4,-12.8 H 260 c 0,0 2.4,-10.4 2.4,-14.4 0,-10.4 -5.6,-23.2 -23.2,-23.2 -16.8,-1.6 -20.8,16 -20.8,36 z m 20,-23.2 c 8.8,0 10.4,10.4 10.4,11.2 H 228 c 0,-0.8 1.6,-11.2 10.4,-11.2 z"
   id="path10156" />
	<path
   style="fill:#dce5e5"
   d="m 340,290.4 3.2,-17.6 c 0,0 -8,4 -13.6,4 -11.2,0 -16,-8.8 -16,-18.4 0,-19.2 9.6,-29.6 20.8,-29.6 8,0 14.4,4.8 14.4,4.8 l 2.4,-16.8 c 0,0 -9.6,-4 -18.4,-4 -18.4,0 -28.8,16 -28.8,46.4 0,20 1.6,33.6 20.8,33.6 6.4,0 15.2,-2.4 15.2,-2.4 z"
   id="path10158" />
	<path
   style="fill:#dce5e5"
   d="m 95.2,244.8 c 0,0 7.2,-3.2 17.6,-3.2 5.6,0 10.4,0.8 10.4,5.6 0,3.2 -0.8,4 -0.8,4 0,0 -4.8,0 -7.2,0 -13.6,0 -28.8,5.6 -28.8,24 0,14.4 9.6,17.6 15.2,17.6 11.2,0 16,-7.2 16.8,-7.2 l -0.8,6.4 H 132 l 6.4,-44 c 0,-18.4 -16,-19.2 -22.4,-19.2 m 12,34.4 c 0,2.4 -9.6,15.2 -19.2,15.2 -4.8,0 -6.4,-4 -6.4,-6.4 0,-4 2.4,-9.6 14.4,-9.6 2.4,0.8 11.2,0.8 11.2,0.8 z"
   id="path10160" />
	<path
   style="fill:#dce5e5"
   d="m 136,290.4 c 0,0 4.8,1.6 18.4,1.6 4,0 24,0.8 24,-20.8 0,-20 -19.2,-16 -19.2,-24 0,-4 3.2,-5.6 8.8,-5.6 2.4,0 11.2,0.8 11.2,0.8 l 2.4,-14.4 c 0,0 -5.6,-1.6 -15.2,-1.6 -12,0 -16,4.8 -16,20.8 0,18.4 12,16.8 12,24 0,4.8 -5.6,5.6 -9.6,5.6"
   id="path10162" />
	<path
   style="fill:#dce5e5"
   d="m 469.6,236 c 0,0 -6.4,-8 -15.2,-8 -14.4,0 -19.2,17.6 -19.2,38.4 0,12.8 -1.6,26.4 12,26.4 9.6,0 15.2,-6.4 15.2,-6.4 l -0.8,5.6 h 16 l 12,-76.8 m -20.8,41.6 c 0,8.8 -7.2,20 -16,20 -5.6,0 -8.8,-4.8 -8.8,-12.8 0,-12.8 5.6,-20.8 12.8,-20.8 5.6,0 12,4 12,13.6 z"
   id="path10164" />
	<path
   style="fill:#dce5e5"
   d="m 29.6,291.2 9.6,-57.6 1.6,57.6 H 52 L 72.8,233.6 64,291.2 h 16.8 l 12.8,-76.8 h -20 l -22.4,47.2 -0.8,-47.2 h -8.8 l -27.2,76.8 z"
   id="path10166" />
	<path
   style="fill:#dce5e5"
   d="m 260.8,291.2 h 16.8 c 4.8,-26.4 5.6,-48 16.8,-44 1.6,-10.4 4,-14.4 5.6,-18.4 0,0 -0.8,0 -3.2,0 -7.2,0 -12.8,9.6 -12.8,9.6 l 1.6,-8.8"
   id="path10168" />
	<path
   style="fill:#dce5e5"
   d="m 355.2,244.8 c 0,0 7.2,-3.2 17.6,-3.2 5.6,0 10.4,0.8 10.4,5.6 0,3.2 -0.8,4 -0.8,4 0,0 -4.8,0 -7.2,0 -13.6,0 -28.8,5.6 -28.8,24 0,14.4 9.6,17.6 15.2,17.6 11.2,0 16,-7.2 16.8,-7.2 l -0.8,6.4 H 392 l 6.4,-44 c 0,-18.4 -16,-19.2 -22.4,-19.2 m 12,34.4 c 0,2.4 -9.6,15.2 -19.2,15.2 -4.8,0 -6.4,-4 -6.4,-6.4 0,-4 2.4,-9.6 14.4,-9.6 3.2,0.8 11.2,0.8 11.2,0.8 z"
   id="path10170" />
	<path
   style="fill:#dce5e5"
   d="M 395.2,291.2 H 412 c 4.8,-26.4 5.6,-48 16.8,-44 1.6,-10.4 4,-14.4 5.6,-18.4 0,0 -0.8,0 -3.2,0 -7.2,0 -12.8,9.6 -12.8,9.6 l 1.6,-8.8"
   id="path10172" />
</g>
<g
   id="g10176"
   transform="translate(0,-100.8)">
</g>
<g
   id="g10178"
   transform="translate(0,-100.8)">
</g>
<g
   id="g10180"
   transform="translate(0,-100.8)">
</g>
<g
   id="g10182"
   transform="translate(0,-100.8)">
</g>
<g
   id="g10184"
   transform="translate(0,-100.8)">
</g>
<g
   id="g10186"
   transform="translate(0,-100.8)">
</g>
<g
   id="g10188"
   transform="translate(0,-100.8)">
</g>
<g
   id="g10190"
   transform="translate(0,-100.8)">
</g>
<g
   id="g10192"
   transform="translate(0,-100.8)">
</g>
<g
   id="g10194"
   transform="translate(0,-100.8)">
</g>
<g
   id="g10196"
   transform="translate(0,-100.8)">
</g>
<g
   id="g10198"
   transform="translate(0,-100.8)">
</g>
<g
   id="g10200"
   transform="translate(0,-100.8)">
</g>
<g
   id="g10202"
   transform="translate(0,-100.8)">
</g>
<g
   id="g10204"
   transform="translate(0,-100.8)">
</g>
</svg>
