<?xml version="1.0" encoding="UTF-8" standalone="no"?>
<!-- Generator: Adobe Illustrator 19.0.0, SVG Export Plug-In . SVG Version: 6.00 Build 0)  -->

<svg
   version="1.1"
   id="Capa_1"
   x="0px"
   y="0px"
   viewBox="0 0 504 152.8"
   xml:space="preserve"
   sodipodi:docname="visa-color-cropp.svg"
   width="504"
   height="152.8"
   inkscape:version="1.2.1 (9c6d41e410, 2022-07-14)"
   xmlns:inkscape="http://www.inkscape.org/namespaces/inkscape"
   xmlns:sodipodi="http://sodipodi.sourceforge.net/DTD/sodipodi-0.dtd"
   xmlns="http://www.w3.org/2000/svg"
   xmlns:svg="http://www.w3.org/2000/svg"><defs
   id="defs12684" /><sodipodi:namedview
   id="namedview12682"
   pagecolor="#ffffff"
   bordercolor="#000000"
   borderopacity="0.25"
   inkscape:showpageshadow="2"
   inkscape:pageopacity="0.0"
   inkscape:pagecheckerboard="0"
   inkscape:deskcolor="#d1d1d1"
   showgrid="false"
   inkscape:zoom="1.6150794"
   inkscape:cx="252.30958"
   inkscape:cy="76.46683"
   inkscape:window-width="1920"
   inkscape:window-height="1001"
   inkscape:window-x="-9"
   inkscape:window-y="-9"
   inkscape:window-maximized="1"
   inkscape:current-layer="Capa_1" />
<polygon
   style="fill:#3c58bf"
   points="250.4,180.4 225.6,324.4 184.8,324.4 210.4,180.4 "
   id="polygon12619"
   transform="translate(0,-175.6)" />
<polygon
   style="fill:#293688"
   points="250.4,180.4 225.6,324.4 184.8,324.4 217.6,180.4 "
   id="polygon12621"
   transform="translate(0,-175.6)" />
<path
   style="fill:#3c58bf"
   d="M 370.4,6.4 C 362.4,3.2 349.6,0 333.6,0 c -40,0 -68.8,20 -68.8,48.8 0,21.6 20,32.8 36,40 16,7.2 20.8,12 20.8,18.4 0,9.6 -12.8,14.4 -24,14.4 -16,0 -24.8,-2.4 -38.4,-8 l -5.6,-2.4 -5.6,32.8 c 9.6,4 27.2,8 45.6,8 42.4,0 70.4,-20 70.4,-50.4 0,-16.8 -10.4,-29.6 -34.4,-40 -14.4,-7.2 -23.2,-11.2 -23.2,-18.4 0,-6.4 7.2,-12.8 23.2,-12.8 13.6,0 23.2,2.4 30.4,5.6 l 4,1.6 z"
   id="path12623" />
<path
   style="fill:#293688"
   d="M 370.4,6.4 C 362.4,3.2 349.6,0 333.6,0 293.6,0 272,20 272,48.8 c 0,21.6 12.8,32.8 28.8,40 16,7.2 20.8,12 20.8,18.4 0,9.6 -12.8,14.4 -24,14.4 -16,0 -24.8,-2.4 -38.4,-8 l -5.6,-2.4 -5.6,32.8 c 9.6,4 27.2,8 45.6,8 42.4,0 70.4,-20 70.4,-50.4 0,-16.8 -10.4,-29.6 -34.4,-40 -14.4,-7.2 -23.2,-11.2 -23.2,-18.4 0,-6.4 7.2,-12.8 23.2,-12.8 13.6,0 23.2,2.4 30.4,5.6 l 4,1.6 z"
   id="path12625" />
<path
   style="fill:#3c58bf"
   d="m 439.2,4.8 c -9.6,0 -16.8,0.8 -20.8,10.4 l -60,133.6 h 43.2 l 8,-24 h 51.2 l 4.8,24 H 504 L 470.4,4.8 Z m -18.4,96 c 2.4,-7.2 16,-42.4 16,-42.4 0,0 3.2,-8.8 5.6,-14.4 l 2.4,13.6 c 0,0 8,36 9.6,44 h -33.6 z"
   id="path12627" />
<path
   style="fill:#293688"
   d="M 448.8,4.8 C 439.2,4.8 432,5.6 428,15.2 l -69.6,133.6 h 43.2 l 8,-24 h 51.2 l 4.8,24 H 504 L 470.4,4.8 Z m -28,96 c 3.2,-8 16,-42.4 16,-42.4 0,0 3.2,-8.8 5.6,-14.4 l 2.4,13.6 c 0,0 8,36 9.6,44 h -33.6 z"
   id="path12629" />
<path
   style="fill:#3c58bf"
   d="m 111.2,105.6 -4,-20.8 C 100,60.8 76.8,34.4 51.2,21.6 l 36,128 h 43.2 L 195.2,5.6 H 152 Z"
   id="path12631" />
<path
   style="fill:#293688"
   d="m 111.2,105.6 -4,-20.8 C 100,60.8 76.8,34.4 51.2,21.6 l 36,128 h 43.2 L 195.2,5.6 H 160 Z"
   id="path12633" />
<path
   style="fill:#ffbc00"
   d="m 0,4.8 7.2,1.6 c 51.2,12 86.4,42.4 100,78.4 L 92.8,16.8 C 90.4,7.2 83.2,4.8 74.4,4.8 Z"
   id="path12635" />
<path
   style="fill:#f7981d"
   d="m 0,4.8 v 0 C 51.2,16.8 93.6,48 107.2,84 L 93.6,27.2 C 91.2,17.6 83.2,12 74.4,12 Z"
   id="path12637" />
<path
   style="fill:#ed7c00"
   d="m 0,4.8 v 0 C 51.2,16.8 93.6,48 107.2,84 L 97.6,52.8 C 95.2,43.2 92,33.6 80.8,29.6 Z"
   id="path12639" />
<g
   id="g12649"
   transform="translate(0,-175.6)">
	<path
   style="fill:#051244"
   d="m 151.2,276.4 -27.2,-27.2 -12.8,30.4 -3.2,-20 c -7.2,-24 -30.4,-50.4 -56,-63.2 l 36,128 h 43.2 z"
   id="path12641" />
	<polygon
   style="fill:#051244"
   points="184.8,324.4 225.6,324.4 191.2,289.2 "
   id="polygon12643" />
	<path
   style="fill:#051244"
   d="m 317.6,274.8 v 0 c 3.2,3.2 4.8,5.6 4,8.8 0,9.6 -12.8,14.4 -24,14.4 -16,0 -24.8,-2.4 -38.4,-8 l -5.6,-2.4 -5.6,32.8 c 9.6,4 27.2,8 45.6,8 25.6,0 46.4,-7.2 58.4,-20 z"
   id="path12645" />
	<path
   style="fill:#051244"
   d="m 364,324.4 h 37.6 l 8,-24 h 51.2 l 4.8,24 H 504 l -13.6,-58.4 -48,-46.4 2.4,12.8 c 0,0 8,36 9.6,44 h -33.6 c 3.2,-8 16,-42.4 16,-42.4 0,0 3.2,-8.8 5.6,-14.4"
   id="path12647" />
</g>
<g
   id="g12651"
   transform="translate(0,-175.6)">
</g>
<g
   id="g12653"
   transform="translate(0,-175.6)">
</g>
<g
   id="g12655"
   transform="translate(0,-175.6)">
</g>
<g
   id="g12657"
   transform="translate(0,-175.6)">
</g>
<g
   id="g12659"
   transform="translate(0,-175.6)">
</g>
<g
   id="g12661"
   transform="translate(0,-175.6)">
</g>
<g
   id="g12663"
   transform="translate(0,-175.6)">
</g>
<g
   id="g12665"
   transform="translate(0,-175.6)">
</g>
<g
   id="g12667"
   transform="translate(0,-175.6)">
</g>
<g
   id="g12669"
   transform="translate(0,-175.6)">
</g>
<g
   id="g12671"
   transform="translate(0,-175.6)">
</g>
<g
   id="g12673"
   transform="translate(0,-175.6)">
</g>
<g
   id="g12675"
   transform="translate(0,-175.6)">
</g>
<g
   id="g12677"
   transform="translate(0,-175.6)">
</g>
<g
   id="g12679"
   transform="translate(0,-175.6)">
</g>
</svg>
